<?xml version="1.0" encoding="UTF-8"?>
<svg id="Camada_1" data-name="Camada 1" xmlns="http://www.w3.org/2000/svg" viewBox="0 0 50.97 71.01">
  <defs>
    <style>
      .cls-1 {
        fill: #00a336;
        stroke-width: 0px;
      }
    </style>
  </defs>
  <circle class="cls-1" cx="15.46" cy="64.72" r="1.72"/>
  <path class="cls-1" d="m30.93,15.46c0-5.5-2.98-10.65-7.73-13.4l-.29-.11h-2v13c-3.21,2.46-7.67,2.46-10.88,0V1.95h-2l-.29.17C2.98,4.81,0,9.96,0,15.46h0v1.03c0,.17,0,.29.06.46,0,.11,0,.23.06.34,0,.11.06.29.06.4s.06.23.06.4c0,.11.06.23.06.34s.06.29.11.4c0,.11.06.23.06.34.06.11.06.29.11.4,0,.11.06.17.06.29.06.17.11.29.11.46.06.06.06.17.11.23.06.17.11.34.17.46,0,.06.06.11.06.17.06.17.17.34.23.52,0,.06.06.06.06.11.11.23.17.4.29.63h0c.8,1.55,1.83,2.92,3.09,4.12l.69.74c2.18,2.23,3.67,8.08,3.67,11.91v25.49c0,3.49,2.81,6.3,6.3,6.3s6.3-2.81,6.3-6.3v-25.43c0-3.84,1.49-9.68,3.67-11.91l.69-.74c1.26-1.2,2.29-2.58,3.09-4.12h0c.11-.17.23-.4.29-.63,0-.06.06-.06.06-.11.06-.17.17-.34.23-.52,0-.06.06-.11.06-.17.06-.17.11-.29.17-.46.06-.06.06-.17.11-.23.06-.17.11-.29.11-.46.06-.11.06-.17.06-.29.06-.11.06-.29.11-.4,0-.11.06-.23.06-.34.06-.11.06-.29.11-.4,0-.11.06-.23.06-.34s.06-.23.06-.4c0-.11.06-.29.06-.4s.06-.23.06-.34c0-.17,0-.29.06-.46v-.29c.11-.29.11-.57.11-.8h0ZM7.73,4.81v11.17l.4.34c2.12,1.83,4.7,2.75,7.33,2.75s5.21-.92,7.33-2.69l.4-.34V4.81c3.38,2.46,5.44,6.41,5.44,10.65,0,.4,0,.8-.06,1.2v.06c-.06.4-.11.8-.17,1.15v.11c-.06.4-.17.74-.29,1.15v.06c-.11.4-.23.74-.4,1.15v.06c-.63,1.55-1.55,2.92-2.69,4.18l-.52.52c-2.41,2.18-5.56,3.55-9.05,3.55s-6.64-1.37-8.99-3.61l-.52-.52c-1.15-1.2-2.06-2.63-2.69-4.18v-.06c-.17-.34-.29-.74-.4-1.15v-.06c-.11-.34-.17-.74-.29-1.15v-.11c-.06-.4-.11-.74-.17-1.15v-.06c-.11-.34-.11-.74-.11-1.15,0-4.24,2.06-8.19,5.44-10.65Zm11.74,34.48v25.43c0,2.23-1.78,4.01-4.01,4.01s-4.01-1.78-4.01-4.01v-25.43c0-2.46-.63-6.36-1.95-9.56,1.83.8,3.84,1.2,5.96,1.2s4.12-.4,5.96-1.2c-1.32,3.21-1.95,7.16-1.95,9.56Z"/>
  <path class="cls-1" d="m50.34,39.4l.63-.34v-4.7h-5.73V7.73c.34-.17.63-.34.86-.63.52-.57.74-1.32.69-2.06l-.52-5.04h-4.35l-.52,5.04c-.06.74.17,1.49.69,2.06.23.29.52.46.86.63v26.63h-5.73v4.7l.63.34c.69.34,1.15,1.03,1.15,1.83s-.4,1.49-1.15,1.83l-.63.34v20.73c0,3.78,3.09,6.87,6.87,6.87s6.87-3.09,6.87-6.87v-20.73l-.63-.34c-.69-.34-1.15-1.03-1.15-1.83s.46-1.49,1.15-1.83ZM43.98,2.29h.23l.29,2.98c0,.17-.06.29-.11.34s-.11.11-.29.11-.29-.06-.29-.11-.11-.17-.11-.34l.29-2.98Zm-4.47,35.45v-1.09h9.16v1.09c-1.09.8-1.78,2.12-1.78,3.49s.69,2.69,1.78,3.49v18.27h-9.16v-18.27c1.09-.8,1.78-2.12,1.78-3.49s-.69-2.69-1.78-3.49Zm4.58,30.98c-2.12,0-3.89-1.49-4.41-3.44h8.88c-.57,1.95-2.35,3.44-4.47,3.44Z"/>
</svg>