<?xml version="1.0" encoding="UTF-8"?>
<svg id="Camada_1" data-name="Camada 1" xmlns="http://www.w3.org/2000/svg" viewBox="0 0 81.86 68.9">
  <defs>
    <style>
      .cls-1 {
        fill: #00a336;
        stroke-width: 0px;
      }
    </style>
  </defs>
  <path class="cls-1" d="m31.02,26.76c.04.34.11.67.22.99.11.26.28.5.49.69.39.36.84.66,1.32.89.22.11.45.19.68.26v-6.32c-.67.16-1.28.5-1.77.98-.66.66-1.01,1.57-.94,2.51Z"/>
  <path class="cls-1" d="m37.96,34.41v5.45c.08-.03.16-.07.23-.11.35-.18.66-.42.92-.71.16-.2.28-.43.36-.68.07-.18.11-.36.13-.55h0c.02-1.25-.21-2.15-.69-2.71-.27-.3-.6-.54-.96-.7Z"/>
  <path class="cls-1" d="m81.71,35.43c-.71-3.76-7.21-5.58-13.58-5.49-.05-3.57-.86-7.09-2.39-10.32,1.1-.28,4.33-1.28,5.72-3.88,1.29-.25,2.49-.86,3.46-1.75,2.12-1.93,2.89-4.7,1.93-7.07-.35-.7-1.2-.98-1.9-.63-.62.31-.93,1.03-.72,1.7.58,1.43-.19,3.01-1.21,3.92-.29.26-.61.48-.95.66-.13-1.28-.66-2.66-1.59-4.11-1.33-2.05-3.14-3.05-4.88-2.64-1.42.32-2.48,1.53-2.68,3.08-.31,2.33,1.26,4.63,4.18,6.17.31.16.63.3.95.42-1.07.87-2.57,1.33-3.24,1.47-.15.03-.3.09-.43.18-4.55-7.37-12.59-11.86-21.25-11.86,0,0-1.74-.28-6.16-.28s-7.01.28-7.01.28c-1.94,0-3.87.24-5.76.69C20.63-2.35,13.41.46,13.41.46l2.55,9.1c-5.11,3.47-8.75,8.71-10.23,14.7L.06,27.24c-.21,2.86.1,5.73.92,8.47l5.02,1.55c1.66,5.7,5.3,10.62,10.25,13.88l.46,7.9s1.95,1.61,5.4.13l1.34-4.8c2.13.59,4.33.89,6.54.89,0,0,3,.06,6.32.06.83,0,1.66,0,2.45,0v7.28c0,4.13,6.67,6.29,13.26,6.29,5.78,0,11.62-1.66,12.97-4.86,1.19.17,2.4.25,3.6.26,6.59,0,13.26-2.16,13.26-6.29v-21.9c0-.23-.05-.46-.15-.67Zm-15.99-26.17c.05-.37.24-.63.5-.69.04-.01.09-.01.13-.01.41,0,1.06.36,1.75,1.43.71,1.09,1.1,2.07,1.16,2.92-.3-.08-.58-.2-.85-.34-2.16-1.13-2.8-2.49-2.7-3.3h0Zm2.86,23.93c6.42,0,9.88,2.06,9.88,2.91s-3.46,2.91-9.88,2.91-9.88-2.06-9.88-2.91,3.46-2.91,9.88-2.91Zm-16.57,11.9c6.42,0,9.88,2.06,9.88,2.91s-3.46,2.92-9.88,2.92-9.88-2.06-9.88-2.91,3.46-2.91,9.88-2.91h0Zm-9.88,7.2c2.55,1.31,6.21,2,9.88,2s7.33-.69,9.88-2v3.01c0,.84-3.46,2.91-9.88,2.91s-9.88-2.06-9.88-2.91v-3.01ZM27.5,11.68h18.01c.78.07,1.36.75,1.29,1.53-.06.69-.6,1.23-1.29,1.29h-18.01c-.78.07-1.47-.51-1.53-1.29-.07-.78.51-1.47,1.29-1.53.08,0,.16,0,.25,0Zm10.47,32.56c.02.65-.28,1.27-.8,1.67-.39.29-.86.46-1.34.46-.5,0-.98-.18-1.37-.5-.47-.41-.73-1-.71-1.63v-.39c-1.54-.18-3.03-.69-4.35-1.5-1.7-1.09-2.75-2.67-3.13-4.7-.14-.54-.01-1.12.35-1.55.39-.45.98-.68,1.57-.61.98,0,1.8.72,1.92,1.69.18.69.65,1.39,1.43,1.98.54.41,1.29.71,2.22.86v-6.45c-1.71-.29-3.15-.92-4.28-1.86-1.39-1.19-2.26-2.87-2.44-4.69-.1-1.03.04-2.07.42-3.04.37-.93.94-1.76,1.66-2.45.76-.72,1.67-1.27,2.66-1.63.64-.23,1.3-.4,1.97-.5v-.51c-.01-.58.22-1.14.64-1.55.94-.8,1.99-.74,2.82-.09.49.41.77,1.01.77,1.64v.72c1.26.32,2.41.96,3.33,1.87,1.24,1.22,1.89,2.86,1.95,4.85,0,.11,0,.22-.03.33-.2.97-.89,1.64-1.77,1.75-1.11.13-1.95-.59-2.08-1.72-.04-.42-.12-.83-.25-1.23-.12-.35-.3-.67-.53-.95-.19-.23-.39-.43-.62-.62v6.45c.83.21,1.62.54,2.34.99.82.5,1.53,1.16,2.08,1.95.48.74.81,1.56.96,2.43.15.74.19,1.5.12,2.25-.1,1.39-.69,2.71-1.77,3.9-.89.97-2.12,1.62-3.73,1.92v.46Zm14.05,21.27c-6.41,0-9.88-2.06-9.88-2.91v-3.02c2.55,1.31,6.21,2,9.88,2s7.33-.7,9.88-2v3.01c0,.85-3.46,2.91-9.88,2.91h0Zm26.45-7.51c0,.84-3.46,2.91-9.88,2.91-1.11,0-2.21-.08-3.31-.23v-3.91c1.1.14,2.2.22,3.31.22,3.67,0,7.33-.69,9.88-2v3.01Zm0-7.3c0,.84-3.46,2.91-9.88,2.91-1.11,0-2.21-.08-3.31-.23v-3.91c1.1.14,2.2.22,3.31.22,3.67,0,7.33-.7,9.88-2v3.01Zm0-7.3c0,.84-3.46,2.91-9.88,2.91-1.33,0-2.66-.1-3.97-.3-1.01-1.59-3.19-2.74-5.91-3.42v-2.2c1.4.68,2.88,1.18,4.41,1.46l.17.04c.73.14,1.49.25,2.26.33.13.01.26.04.39.05.89.08,1.77.13,2.66.13s1.78-.05,2.66-.13c.13-.01.26-.04.39-.05.77-.08,1.52-.19,2.26-.33.06-.01.11-.02.17-.04,1.53-.28,3.01-.78,4.41-1.46h0v3.02Z"/>
</svg>