<?xml version="1.0" encoding="UTF-8"?>
<svg id="Camada_1" data-name="Camada 1" xmlns="http://www.w3.org/2000/svg" viewBox="0 0 76.08 71.01">
  <defs>
    <style>
      .cls-1 {
        fill: #fff;
      }

      .cls-1, .cls-2 {
        stroke-width: 0px;
      }

      .cls-2 {
        fill: #00a336;
      }
    </style>
  </defs>
  <g id="Layer_58" data-name="Layer 58">
    <path class="cls-2" d="m38.04,60.87c-2.8,0-5.07-2.27-5.07-5.07s2.27-5.07,5.07-5.07,5.07,2.27,5.07,5.07-2.27,5.07-5.07,5.07Z"/>
    <path class="cls-2" d="m38.04,45.66c-1.4,0-2.54-1.14-2.54-2.54v-20.29c0-1.4,1.14-2.54,2.54-2.54s2.54,1.14,2.54,2.54v20.29c0,1.4-1.14,2.54-2.54,2.54Z"/>
    <path class="cls-2" d="m67.91,71.01H8.17c-2.88.02-5.56-1.5-7.02-3.98-1.47-2.43-1.52-5.45-.15-7.94L30.86,4.24c2.18-3.96,7.16-5.41,11.12-3.23,1.36.75,2.48,1.87,3.23,3.23l29.87,54.85c1.37,2.48,1.31,5.51-.15,7.94-1.46,2.48-4.14,4-7.02,3.98ZM38.04,5.08c-1.13-.02-2.18.59-2.71,1.6L5.45,61.5c-.55.9-.55,2.04,0,2.94.53.91,1.49,1.47,2.54,1.5h59.92c1.05-.02,2.01-.59,2.54-1.5.55-.9.55-2.04,0-2.94L40.75,6.68c-.53-1-1.58-1.62-2.71-1.6Z"/>
  </g>
  <path class="cls-1" d="m17.07,43.18c-1.15,0-2.28-.29-3.29-.85-1.13-.62-2.07-1.55-2.69-2.69l-6.69-12.29c-1.15-2.08-1.1-4.68.14-6.75.82-1.39,2.13-2.43,3.65-2.94v-6.32c0-3.64,2.96-6.59,6.59-6.59h4.58c3.64,0,6.59,2.96,6.59,6.59v6.32c1.52.52,2.84,1.57,3.68,2.98,1.22,2.02,1.27,4.62.1,6.73l-6.67,12.25c-1.21,2.2-3.51,3.56-6,3.56h0Z"/>
  <path class="cls-2" d="m25.33,23.18c-.33-.56-.93-.89-1.57-.89h-2.8v-10.95c0-.88-.71-1.59-1.59-1.59h-4.58c-.88,0-1.59.71-1.59,1.59v10.95h-2.8c-.65,0-1.24.33-1.57.89-.33.54-.34,1.22-.03,1.78l6.68,12.27c.17.3.42.55.72.72.89.49,2,.16,2.49-.72l6.68-12.27c.31-.56.29-1.23-.03-1.78Z"/>
</svg>