<?xml version="1.0" encoding="UTF-8"?>
<svg id="Camada_1" data-name="Camada 1" xmlns="http://www.w3.org/2000/svg" viewBox="0 0 67.26 68.9">
  <defs>
    <style>
      .cls-1 {
        fill: #00a336;
        stroke-width: 0px;
      }
    </style>
  </defs>
  <path class="cls-1" d="m64.39,51.46c-.36-.53-.66-.92-.9-1.24-.94-1.24-1.28-1.79-1.51-4.04-.34-3.3-1.5-19.97-1.26-21.2,2.39-11.94,1.52-15.8.35-16.93-.32-.31-.84-.62-2.13-.32-1.21.39-3.11,7.71-4.06,15.66-.05.51-.51.89-1.02.84-.51-.04-.9-.47-.88-.99.53-15.02-3.13-20.22-5.35-21.99-2.02-1.59-3.84-1.26-4.34-1.12-.52.13-.96.5-1.17.99-.32.73-.58,2.47,1.24,6,4.37,8.47,2.58,14.91,2.51,15.18-.16.5-.69.79-1.2.63-.33-.1-.58-.38-.66-.72C41.36,8.26,33.29,3.98,26.56,1.82c-2.62-.85-4.66-.62-5.2.6-.57,1.29.53,3.6,3.36,5.22,6.59,3.79,10.52,12.95,10.68,13.34.2.49-.04,1.05-.53,1.24-.34.14-.73.07-1-.18l-1.83-1.7c-3.66-3.41-9.87-6.23-15.37-2.96l-.66.37c-.56.32-1.25.7-1.57.94-3.35,2.44-7.3,5.53-8,6.44-.27.34-.68.99-.48,1.38.29.56,1.78,1.1,3.93.99,2.78-.14,4.71-.8,6.42-1.39,3.17-1.09,5.68-1.95,10.45,1.71,7.24,5.54,9.24,11.64,6.13,18.65-2.63,5.9-7.75,5.86-12.23,5.82-2.52-.01-4.9-.04-6.94.81-2.77,1.16-3.68,3.58-3.97,4.82,3.47.93,16.79,4.46,20.56,4.78,4.88.4,10,.88,13.11,1.18,2.15.21,4.11,1.3,5.44,3l1.55,2,16.84-13.22-2.87-4.21Z"/>
  <path class="cls-1" d="m24.81,40.57c0-6.85-5.55-12.41-12.41-12.41C5.56,28.16,0,33.71,0,40.57c0,6.85,5.55,12.41,12.41,12.41h0c6.85,0,12.4-5.56,12.41-12.41Zm-22.27,0c0-5.45,4.42-9.87,9.86-9.87,5.45,0,9.87,4.42,9.87,9.86,0,5.45-4.42,9.87-9.86,9.87-5.45,0-9.86-4.42-9.87-9.86Z"/>
  <path class="cls-1" d="m13.3,48.23c.25-.19.39-.49.38-.81v-.4c.93-.16,1.66-.51,2.15-1.06.55-.57.89-1.32.96-2.11.04-.41.01-.83-.07-1.24-.08-.47-.26-.91-.52-1.31-.3-.43-.68-.79-1.12-1.06-.43-.27-.91-.46-1.4-.57v-4.09l.04.03c.23.15.43.33.6.54.15.17.26.38.33.59.08.24.13.48.15.73.08.64.53.88.99.83.43-.05.76-.37.88-1.01-.03-1.09-.39-1.97-1.06-2.63-.53-.52-1.2-.88-1.93-1.05v-.54c0-.31-.13-.6-.37-.8-.4-.32-.89-.37-1.39.04-.2.2-.32.47-.31.76v.43c-.42.05-.83.15-1.22.3-.53.19-1.02.5-1.43.89-.39.37-.7.83-.9,1.33-.2.52-.28,1.08-.23,1.64.09.98.56,1.89,1.31,2.54.71.57,1.57.93,2.48,1.03v3.98c-.54-.05-1.06-.24-1.51-.55-.42-.3-.73-.73-.87-1.23-.05-.47-.46-.83-.94-.81-.28-.04-.57.07-.75.29-.17.2-.23.48-.16.74.17,1.06.79,1.99,1.7,2.55.77.47,1.64.76,2.54.84v.37c-.01.3.12.6.35.8.19.16.42.24.67.24.24,0,.47-.08.66-.23Zm-3.41-10.09c-.07-.19-.11-.4-.14-.6-.04-.57.17-1.13.58-1.54.35-.34.8-.56,1.28-.64v3.98c-.22-.05-.42-.12-.62-.22-.29-.14-.55-.31-.78-.53-.14-.13-.25-.28-.32-.46h0Zm5.05,5.65c-.01.12-.04.24-.08.36-.05.16-.13.31-.24.44-.16.18-.35.33-.57.43-.12.06-.24.11-.37.14v-3.55c.32.11.6.29.83.54.3.35.45.9.43,1.63h0Z"/>
</svg>