<?xml version="1.0" encoding="utf-8"?>
<!-- Generator: Adobe Illustrator 27.8.1, SVG Export Plug-In . SVG Version: 6.00 Build 0)  -->
<svg version="1.1" xmlns="http://www.w3.org/2000/svg" xmlns:xlink="http://www.w3.org/1999/xlink" x="0px" y="0px"
	 viewBox="0 0 475 288.6" style="enable-background:new 0 0 475 288.6;" xml:space="preserve">
<style type="text/css">
	.st0{fill:#78AF36;}
	.st1{fill:#73B84A;}
	.st2{clip-path:url(#SVGID_00000182513193802810620120000011728215880372297091_);fill:#4D9351;}
	.st3{fill:#A4C95E;}
	.st4{fill:#75A62C;}
	.st5{fill:#353434;}
	.st6{fill:#2F4344;}
	.st7{clip-path:url(#SVGID_00000099656721674593209100000010979026463866101155_);fill:#23373A;}
	.st8{clip-path:url(#SVGID_00000099656721674593209100000010979026463866101155_);fill:none;stroke:#344C4E;stroke-miterlimit:10;}
	.st9{fill:#C1DFE7;}
	.st10{fill:#B5DAE4;}
	.st11{fill:none;}
	.st12{fill:#9CCDE5;}
	.st13{fill:#A2C3CB;}
	.st14{fill:#90ABAF;}
	.st15{fill:#85B8D1;}
	.st16{fill:#00ADAF;}
	.st17{fill:#008E92;}
	.st18{fill:none;stroke:#FFFFFF;stroke-miterlimit:10;}
	.st19{fill:#23373A;}
	.st20{fill:#F8FCFC;}
	.st21{fill:none;stroke:#E94E1D;stroke-width:2;stroke-linecap:round;stroke-miterlimit:10;}
	.st22{fill:#FFFFFF;}
	.st23{fill:#909191;}
	.st24{fill:#E2E3E2;}
	.st25{fill:#CBD1D0;}
	.st26{fill:#A3AAA9;}
	.st27{fill:#9BA1A1;}
	.st28{fill:#DBDBDB;}
	.st29{fill:#2E7FC2;}
	.st30{fill:url(#SVGID_00000053526913537874056710000009855458206296293522_);}
	.st31{fill:url(#SVGID_00000082354392266212933100000005783979528102661033_);}
	.st32{fill:url(#SVGID_00000158000813096307838120000014513061242848659353_);}
	.st33{fill:url(#SVGID_00000023280752761654921630000012675121797704125574_);}
	.st34{fill:url(#SVGID_00000080207192287398764400000010337130682564225664_);}
	.st35{fill:url(#SVGID_00000093876573674039343270000003131100318278474401_);}
	.st36{fill:url(#SVGID_00000169534550299447616970000016616354967677983129_);}
	.st37{fill:url(#SVGID_00000178181745144399803500000016609789181161350305_);}
	.st38{fill:url(#SVGID_00000044165303751580623210000012867909551304087990_);}
	.st39{fill:url(#SVGID_00000114037029589757882470000002388829892635932039_);}
	.st40{fill:url(#SVGID_00000047754167810499677150000010850703399494272435_);}
	.st41{fill:url(#SVGID_00000089572021689868005950000013339583065827747758_);}
	.st42{fill:url(#SVGID_00000072983325477742003840000005858074761503705220_);}
	.st43{fill:url(#SVGID_00000142176503311694039930000000876917165758348990_);}
	.st44{fill:url(#SVGID_00000062158173096869560990000007670890310421554364_);}
	.st45{fill:url(#SVGID_00000106135390907525390310000017512221226554194080_);}
	.st46{fill:url(#SVGID_00000136369412186887888370000004031044473657073028_);}
	.st47{fill:url(#SVGID_00000098201936968367067380000015770777298549192638_);}
	.st48{fill:url(#SVGID_00000088840873727449281080000002636376278415299748_);}
	.st49{fill:url(#SVGID_00000164485958456290026580000005463091992325864837_);}
	.st50{fill:url(#SVGID_00000072968242268816015530000009447554619190229134_);}
	.st51{fill:url(#SVGID_00000051374906862467175890000006356109889424336277_);}
	.st52{fill:url(#SVGID_00000181791631929583102340000002775990241285361836_);}
	.st53{fill:url(#SVGID_00000145760311796938124810000001114869533408587427_);}
	.st54{clip-path:url(#SVGID_00000128446060881767420610000008744513912345161643_);fill:none;stroke:#344C4E;stroke-miterlimit:10;}
	.st55{clip-path:url(#SVGID_00000075124011457787638170000002926315476189059216_);fill:#B5DAE4;}
	.st56{clip-path:url(#SVGID_00000088817195584242728940000017304123847197939844_);fill:#4F4E4D;}
	.st57{fill:#4F4E4D;}
	.st58{fill:#4D9351;}
	.st59{fill:none;stroke:#90ABAF;stroke-miterlimit:10;}
	.st60{fill:none;stroke:#344C4E;stroke-miterlimit:10;}
	.st61{clip-path:url(#SVGID_00000088815102060452945230000007805879365541289348_);}
	.st62{fill:#F4F4F4;}
	.st63{clip-path:url(#SVGID_00000026131064755705946170000013117885206696579775_);}
	.st64{clip-path:url(#SVGID_00000046323636425559325900000015734400395311335055_);fill:#4D9351;}
	.st65{clip-path:url(#SVGID_00000069382202552844804210000016632744672799478438_);fill:#23373A;}
	.st66{clip-path:url(#SVGID_00000069382202552844804210000016632744672799478438_);fill:none;stroke:#344C4E;stroke-miterlimit:10;}
	.st67{fill:url(#SVGID_00000038400986772146260870000017685946057235967108_);}
	.st68{fill:url(#SVGID_00000128452678871568183240000006687285916347807881_);}
	.st69{fill:url(#SVGID_00000183952509392882729420000010522323530998228380_);}
	.st70{fill:url(#SVGID_00000080909264705608916960000011320930525500970665_);}
	.st71{fill:url(#SVGID_00000003801283886153449670000008186375593148540860_);}
	.st72{fill:url(#SVGID_00000042696253149441389430000011930860464113111470_);}
	.st73{fill:url(#SVGID_00000155122212994243579230000011724607790385666959_);}
	.st74{fill:url(#SVGID_00000131339628437447264160000001674635128335944098_);}
	.st75{fill:url(#SVGID_00000175307340377808046260000013139047475693917112_);}
	.st76{fill:url(#SVGID_00000114788097156713540020000006532576955392914851_);}
	.st77{fill:url(#SVGID_00000060014393423815869880000016632631462683458959_);}
	.st78{fill:url(#SVGID_00000027586329783093408980000002136816669914284465_);}
	.st79{fill:url(#SVGID_00000147931650860615119390000015047197790978001574_);}
	.st80{fill:url(#SVGID_00000176734793088413924110000002210925078306764160_);}
	.st81{fill:url(#SVGID_00000000217370364641945400000013954243087458772864_);}
	.st82{fill:url(#SVGID_00000106122581806553211120000003501686840829489587_);}
	.st83{fill:url(#SVGID_00000132778727232844753250000002321793220242528945_);}
	.st84{fill:url(#SVGID_00000066495053157117729990000006815330480005777571_);}
	.st85{fill:url(#SVGID_00000028282697202856437310000015266175472033642670_);}
	.st86{fill:url(#SVGID_00000178165739552946903940000006092067963705245583_);}
	.st87{fill:url(#SVGID_00000085241222993573786710000016230215791212754051_);}
	.st88{fill:url(#SVGID_00000016763030741811539450000015978068924213781138_);}
	.st89{fill:url(#SVGID_00000049941139574601000950000007977653571519175599_);}
	.st90{fill:url(#SVGID_00000014598171325657768560000011152890483460276667_);}
	.st91{clip-path:url(#SVGID_00000179609255104342419560000005534406888693061565_);fill:none;stroke:#344C4E;stroke-miterlimit:10;}
	.st92{clip-path:url(#SVGID_00000163780672290069784890000000491621896192830366_);fill:#B5DAE4;}
	.st93{clip-path:url(#SVGID_00000132051592854496278580000008615217034737822601_);fill:#4F4E4D;}
	.st94{clip-path:url(#SVGID_00000005247324129979796820000010663162641918183868_);}
	.st95{clip-path:url(#SVGID_00000036246640632347587870000001732418598649709232_);}
	.st96{fill:#D6AF2F;}
	.st97{fill:#F2CB37;}
</style>
<g id="Camada_2">
</g>
<g id="Camada_1">
</g>
<g id="Camada_3">
	<g>
		<path class="st0" d="M438.8,221.6H27.7c-9.4,0-17-7.6-17-17v0c0-9.4,7.6-17,17-17h411.1c9.4,0,17,7.6,17,17v0
			C455.8,214,448.1,221.6,438.8,221.6z"/>
		<path class="st0" d="M458,246.4H17c-9.4,0-17-7.6-17-17v0c0-9.4,7.6-17,17-17h441c9.4,0,17,7.6,17,17v0
			C475,238.7,467.4,246.4,458,246.4z"/>
		<path class="st0" d="M446.4,271.1H55.7c-9.4,0-17-7.6-17-17v0c0-9.4,7.6-17,17-17h390.6c9.4,0,17,7.6,17,17v0
			C463.4,263.5,455.8,271.1,446.4,271.1z"/>
		<path class="st0" d="M431.2,288.6H78.3c-9.4,0-17-7.6-17-17v0c0-9.4,7.6-17,17-17h352.8c9.4,0,17,7.6,17,17v0
			C448.2,281,440.5,288.6,431.2,288.6z"/>
		<path class="st1" d="M433.5,54.1c-3.7-4.2-9.9-5.4-16.6-3.9c-2.6-12.4-13.1-21.7-25.6-21.7c-0.5,0-1,0-1.5,0.1
			c-4.5-8.4-13-14.1-22.8-14.1c-14.5,0-26.2,12.4-26.2,27.7s11.7,27.7,26.2,27.7c0.5,0,1,0,1.5-0.1c3.8,7.2,10.6,12.4,18.6,13.7
			c-6.2,9.7-6.1,21.9,1.1,30c8.9,10,25.4,9.9,36.8-0.2c10.6-9.4,13.1-24.2,6.3-34.3C437.5,70,438.7,60,433.5,54.1z"/>
		<g>
			<defs>
				<path id="SVGID_1_" d="M433.5,54.1c-3.7-4.2-9.9-5.4-16.6-3.9c-2.6-12.4-13.1-21.7-25.6-21.7c-0.5,0-1,0-1.5,0.1
					c-4.5-8.4-13-14.1-22.8-14.1c-14.5,0-26.2,12.4-26.2,27.7s11.7,27.7,26.2,27.7c0.5,0,1,0,1.5-0.1c3.8,7.2,10.6,12.4,18.6,13.7
					c-6.2,9.7-6.1,21.9,1.1,30c8.9,10,25.4,9.9,36.8-0.2c10.6-9.4,13.1-24.2,6.3-34.3C437.5,70,438.7,60,433.5,54.1z"/>
			</defs>
			<clipPath id="SVGID_00000139988457607318559110000006329775255301090745_">
				<use xlink:href="#SVGID_1_"  style="overflow:visible;"/>
			</clipPath>
			<path style="clip-path:url(#SVGID_00000139988457607318559110000006329775255301090745_);fill:#4D9351;" d="M345.5,36.2
				c0,0,0.5-8.9,5.3-10.4c4.9-1.5-2,14.3,10.2,13.2c12.2-1.1,15.7-9.8,20.1-8.1c4.4,1.6,1.8,30,1.8,30l4.9-20.6
				c0.2-0.9,1.5-0.9,1.6,0c1,5.4,4.1,12.7,13.3,8.5c12.2-5.5,6.6,14.8,5.1,20c-0.1,0.4,0.3,0.7,0.7,0.5c2.1-1.6,6.7-5.8,5.7-12.1
				C413,49,431.3,57.8,431.3,79c3,0,30.1-7.8,12.7,17.1s-34.5,28.3-34.5,28.3l-66.4-84.2L345.5,36.2z"/>
		</g>
		<path class="st3" d="M108.9,243.7H82c0,0-10.7-20.6,9.6-34.7c0,0-3.2-27.1,26-24.6S108.9,243.7,108.9,243.7z"/>
		<path class="st4" d="M93.7,204.6c0.1-1.1,1.4-1.6,2.2-0.8c3.8,3.6,13.1,10.3,19.3-2.8c8-16.9,8,18.7,8,18.7s-18.8,24-19.8,24.1
			c-1.1,0.1-18.4,0-18.4,0s-4.3-14.5,3.6-20.4c2.5-1.9,5.9-2.2,8.9-1.2c1.5,0.5,3.5,1,5.9,1c0.8,0,1.1-1.1,0.4-1.5
			C100,219.2,93.1,213.4,93.7,204.6z"/>
		<path class="st5" d="M56.2,203.9h-2.4v-97.5c0-0.7,0.5-1.2,1.2-1.2l0,0c0.7,0,1.2,0.5,1.2,1.2V203.9z"/>
		<polygon class="st6" points="395.4,51.7 130.9,51.7 101.5,136.3 426.8,136.3 		"/>
		<g>
			<defs>
				<polygon id="SVGID_00000051376499345520066570000011880825856566339712_" points="395.4,51.7 130.9,51.7 101.5,136.3 
					426.8,136.3 				"/>
			</defs>
			<clipPath id="SVGID_00000075160316526556540790000000029368475006745785_">
				<use xlink:href="#SVGID_00000051376499345520066570000011880825856566339712_"  style="overflow:visible;"/>
			</clipPath>
			<polygon style="clip-path:url(#SVGID_00000075160316526556540790000000029368475006745785_);fill:#23373A;" points="268.9,107.6 
				250.6,107.6 224,47.4 268.9,47.4 			"/>
			
				<line style="clip-path:url(#SVGID_00000075160316526556540790000000029368475006745785_);fill:none;stroke:#344C4E;stroke-miterlimit:10;" x1="126.9" y1="55.5" x2="399.5" y2="55.5"/>
			
				<line style="clip-path:url(#SVGID_00000075160316526556540790000000029368475006745785_);fill:none;stroke:#344C4E;stroke-miterlimit:10;" x1="98.9" y1="130.3" x2="429.4" y2="130.3"/>
			
				<line style="clip-path:url(#SVGID_00000075160316526556540790000000029368475006745785_);fill:none;stroke:#344C4E;stroke-miterlimit:10;" x1="98.9" y1="122.8" x2="429.4" y2="122.8"/>
			
				<line style="clip-path:url(#SVGID_00000075160316526556540790000000029368475006745785_);fill:none;stroke:#344C4E;stroke-miterlimit:10;" x1="98.9" y1="115.3" x2="429.4" y2="115.3"/>
			
				<line style="clip-path:url(#SVGID_00000075160316526556540790000000029368475006745785_);fill:none;stroke:#344C4E;stroke-miterlimit:10;" x1="98.9" y1="107.8" x2="429.4" y2="107.8"/>
			
				<line style="clip-path:url(#SVGID_00000075160316526556540790000000029368475006745785_);fill:none;stroke:#344C4E;stroke-miterlimit:10;" x1="98.9" y1="100.4" x2="429.4" y2="100.4"/>
			
				<line style="clip-path:url(#SVGID_00000075160316526556540790000000029368475006745785_);fill:none;stroke:#344C4E;stroke-miterlimit:10;" x1="98.9" y1="92.9" x2="429.4" y2="92.9"/>
			
				<line style="clip-path:url(#SVGID_00000075160316526556540790000000029368475006745785_);fill:none;stroke:#344C4E;stroke-miterlimit:10;" x1="98.9" y1="85.4" x2="429.4" y2="85.4"/>
			
				<line style="clip-path:url(#SVGID_00000075160316526556540790000000029368475006745785_);fill:none;stroke:#344C4E;stroke-miterlimit:10;" x1="98.9" y1="78" x2="429.4" y2="78"/>
			
				<line style="clip-path:url(#SVGID_00000075160316526556540790000000029368475006745785_);fill:none;stroke:#344C4E;stroke-miterlimit:10;" x1="98.9" y1="70.5" x2="429.4" y2="70.5"/>
			
				<line style="clip-path:url(#SVGID_00000075160316526556540790000000029368475006745785_);fill:none;stroke:#344C4E;stroke-miterlimit:10;" x1="98.9" y1="63" x2="429.4" y2="63"/>
		</g>
		<rect x="114.3" y="138.7" class="st9" width="304.8" height="98.3"/>
		<rect x="187.2" y="140.2" class="st10" width="38.7" height="9.3"/>
		<g>
			<rect x="234.7" y="149.5" class="st11" width="45.2" height="46.9"/>
			<rect x="288.6" y="149.5" class="st11" width="44.1" height="46.9"/>
			<rect x="181.3" y="149.5" class="st11" width="44.6" height="46.9"/>
			<rect x="279.9" y="149.5" class="st10" width="8.7" height="46.9"/>
			<rect x="332.7" y="149.5" class="st10" width="8.7" height="46.9"/>
			<rect x="225.9" y="149.5" class="st10" width="8.7" height="46.9"/>
			<rect x="176.6" y="149.5" class="st10" width="4.7" height="46.9"/>
			<rect x="279.9" y="140.2" class="st12" width="8.7" height="9.3"/>
			<rect x="225.9" y="140.2" class="st12" width="8.7" height="9.3"/>
			<rect x="176.6" y="140.2" class="st12" width="4.7" height="9.3"/>
			<polygon class="st13" points="332.7,229.4 332.7,196.4 288.6,196.4 288.6,229.4 279.9,229.4 279.9,196.4 234.7,196.4 
				234.7,229.4 225.9,229.4 225.9,196.4 181.3,196.4 181.3,229.4 176.6,229.4 176.6,196.4 114.3,196.4 114.3,234.9 419,234.9 
				419,196.4 341.5,196.4 341.5,229.4 			"/>
			<rect x="279.9" y="196.4" class="st13" width="8.7" height="32.9"/>
			<rect x="332.7" y="196.4" class="st14" width="8.7" height="32.9"/>
			<rect x="225.9" y="196.4" class="st14" width="8.7" height="32.9"/>
			<rect x="176.6" y="196.4" class="st14" width="4.7" height="32.9"/>
		</g>
		<path class="st15" d="M429.2,229.4h-325c-0.5,0-0.9,0.4-0.9,0.9v13.5c0,0.5,0.4,0.9,0.9,0.9h325c0.5,0,0.9-0.4,0.9-0.9v-13.5
			C430.1,229.8,429.7,229.4,429.2,229.4z"/>
		<rect x="130.2" y="152.5" class="st16" width="39.2" height="63.9"/>
		<rect x="363.9" y="152.5" class="st16" width="39.2" height="63.9"/>
		<polygon class="st17" points="396.8,152.5 396.8,210.1 383.5,210.1 383.5,152.5 377.2,152.5 377.2,210.1 363.9,210.1 363.9,216.4 
			377.2,216.4 383.5,216.4 396.8,216.4 403.1,216.4 403.1,210.1 403.1,152.5 		"/>
		<polygon class="st17" points="163.1,152.5 163.1,210.1 149.8,210.1 149.8,152.5 143.5,152.5 143.5,210.1 130.2,210.1 130.2,216.4 
			143.5,216.4 149.8,216.4 163.1,216.4 169.4,216.4 169.4,210.1 169.4,152.5 		"/>
		<rect x="130.2" y="152.5" class="st18" width="39.2" height="63.9"/>
		<rect x="363.9" y="152.5" class="st18" width="39.2" height="63.9"/>
		<line class="st18" x1="149.8" y1="216.4" x2="149.8" y2="152.5"/>
		<line class="st18" x1="383.5" y1="216.4" x2="383.5" y2="152.5"/>
		<rect x="244.5" y="149.5" class="st6" width="44.1" height="79.8"/>
		<rect x="279.9" y="149.5" class="st19" width="8.7" height="79.8"/>
		<rect x="332.7" y="140.2" class="st12" width="8.7" height="9.3"/>
		<circle class="st20" cx="319.6" cy="165.6" r="3.7"/>
		<rect x="313.6" y="161.7" class="st13" width="11.9" height="4"/>
		<g>
			<rect x="234.7" y="140.2" class="st10" width="45.2" height="9.3"/>
			<rect x="114.3" y="140.2" class="st10" width="62.3" height="9.3"/>
			<rect x="341.5" y="140.2" class="st10" width="77.6" height="9.3"/>
			<rect x="288.6" y="140.2" class="st10" width="44.1" height="9.3"/>
		</g>
		<path class="st21" d="M218,164.1v-6.4c0-1.4-1.1-2.5-2.5-2.5h-6.4"/>
		<path class="st21" d="M216.4,179.6v2.3c0,0.8-0.6,1.4-1.4,1.4h-37.4c-0.8,0-1.4-0.6-1.4-1.4v-29.5c0-0.8-0.6-1.4-1.4-1.4h-61.8
			c0,0-35.5-1-41.2-15.6"/>
		<path class="st21" d="M219.6,179.6v6.3c0,0.8-0.6,1.4-1.4,1.4h-49.8"/>
		<path class="st22" d="M347.4,136.3h-5.9h-43h-9.9h-44.1h-9.9h-47.4h-5.9h-67v3.9h67v89.2h5.9v-32.9h2.3v32.9h2.8v-32.9h2.3v32.9
			h2.8v-32.9h2.3v32.9h2.8v-32.9h2.3v32.9h2.8v-32.9h2.3v32.9h2.8v-32.9h2.3v32.9h2.8v-32.9h2.3v32.9h2.8v-32.9h2.3v32.9h2.8v-32.9
			h2.3v32.9h2.8v-32.9h2.3v32.9h9.9v-89.2h44.1v89.2h9.9v-32.9h2.3v32.9h2.8v-32.9h2.3v32.9h2.8v-32.9h2.3v32.9h2.8v-32.9h2.3v32.9
			h2.8v-32.9h2.3v32.9h2.8v-32.9h2.3v32.9h2.8v-32.9h2.3v32.9h2.8v-32.9h2.3v32.9h2.8v-32.9h2.3v32.9h5.9v-89.2H419v-3.9H347.4z
			 M234.7,190.9h-47.4v-50.7h47.4V190.9z M341.5,190.9h-43v-50.7h43V190.9z"/>
		<rect x="211.6" y="161.6" class="st23" width="12.8" height="19.2"/>
		<g>
			<circle class="st24" cx="218" cy="169" r="3.1"/>
			<ellipse transform="matrix(0.9643 -0.2647 0.2647 0.9643 -36.9452 63.7258)" class="st25" cx="218" cy="169" rx="3.5" ry="0.7"/>
			<circle class="st26" cx="218" cy="169" r="1"/>
		</g>
		<path class="st21" d="M201,144.9v-6.6c0-1.3,0.2-2.5,0.7-3.7l13.1-31.9c0.4-1-0.3-2.2-1.5-2.2h-4.3"/>
		<path class="st22" d="M206.6,143.5h-11.2c-1.5,0-2.7,1.2-2.7,2.7v13.7c0,1.5,1.2,2.7,2.7,2.7h11.2c1.5,0,2.7-1.2,2.7-2.7v-13.7
			C209.2,144.7,208,143.5,206.6,143.5z"/>
		<rect x="199.3" y="143.5" class="st24" width="3.4" height="19.1"/>
		<circle class="st27" cx="201" cy="158.1" r="2"/>
		<g>
			<polygon class="st28" points="151.1,93.3 150.2,92.4 122.3,93.3 110.5,122 111.4,122.9 140.3,122.9 			"/>
			<polygon class="st22" points="150.2,92.4 121.3,92.4 110.5,122 139.4,122 			"/>
			<g>
				<polygon class="st29" points="128,92.8 121.6,92.8 119.1,99.4 125.6,99.4 				"/>
				<polygon class="st29" points="132.8,99.4 135.3,92.8 128.8,92.8 126.4,99.4 				"/>
				<polygon class="st29" points="140.1,99.4 142.5,92.8 136,92.8 133.6,99.4 				"/>
				<polygon class="st29" points="143.2,92.8 140.8,99.4 147.3,99.4 149.7,92.8 				"/>
				<polygon class="st29" points="125.3,100.2 118.9,100.2 116.4,106.8 122.9,106.8 				"/>
				<polygon class="st29" points="132.5,100.2 126.1,100.2 123.6,106.8 130.1,106.8 				"/>
				<polygon class="st29" points="139.8,100.2 133.3,100.2 130.9,106.8 137.3,106.8 				"/>
				<polygon class="st29" points="138.1,106.8 144.6,106.8 147,100.2 140.5,100.2 				"/>
				<polygon class="st29" points="122.6,107.6 116.1,107.6 113.7,114.2 120.2,114.2 				"/>
				<polygon class="st29" points="120.9,114.2 127.4,114.2 129.8,107.6 123.4,107.6 				"/>
				<polygon class="st29" points="137.1,107.6 130.6,107.6 128.2,114.2 134.6,114.2 				"/>
				<polygon class="st29" points="135.4,114.2 141.8,114.2 144.3,107.6 137.8,107.6 				"/>
				<polygon class="st29" points="113.4,115 111,121.6 117.5,121.6 119.9,115 				"/>
				<polygon class="st29" points="120.7,115 118.2,121.6 124.7,121.6 127.1,115 				"/>
				<polygon class="st29" points="127.9,115 125.4,121.6 131.9,121.6 134.3,115 				"/>
				<polygon class="st29" points="132.7,121.6 139.1,121.6 141.6,115 135.1,115 				"/>
			</g>
			<g>
				
					<linearGradient id="SVGID_00000023262253558443624240000012969498752364398755_" gradientUnits="userSpaceOnUse" x1="117.0553" y1="106.3781" x2="126.0834" y2="109.2671">
					<stop  offset="0" style="stop-color:#FFFFFF;stop-opacity:0"/>
					<stop  offset="1" style="stop-color:#65ACDC"/>
				</linearGradient>
				<polygon style="fill:url(#SVGID_00000023262253558443624240000012969498752364398755_);" points="118.2,121.8 128.5,92.6 
					121.4,92.6 110.8,121.8 				"/>
				
					<linearGradient id="SVGID_00000073696814569692640710000008646153917960449694_" gradientUnits="userSpaceOnUse" x1="123.9537" y1="106.3102" x2="133.5394" y2="109.3776">
					<stop  offset="0" style="stop-color:#FFFFFF;stop-opacity:0"/>
					<stop  offset="1" style="stop-color:#65ACDC"/>
				</linearGradient>
				<polygon style="fill:url(#SVGID_00000073696814569692640710000008646153917960449694_);" points="125,121.8 135.8,92.5 
					128.4,92.4 117.6,121.8 				"/>
				
					<linearGradient id="SVGID_00000043420297311562341220000000772197172173003962_" gradientUnits="userSpaceOnUse" x1="138.5857" y1="106.3324" x2="147.6818" y2="109.2432">
					<stop  offset="0" style="stop-color:#FFFFFF;stop-opacity:0"/>
					<stop  offset="1" style="stop-color:#65ACDC"/>
				</linearGradient>
				<polygon style="fill:url(#SVGID_00000043420297311562341220000000772197172173003962_);" points="139.3,121.8 150.1,92.5 
					143,92.6 132.3,121.8 				"/>
			</g>
			
				<linearGradient id="SVGID_00000182516251430240853620000010016750575479938470_" gradientUnits="userSpaceOnUse" x1="131.3705" y1="106.3909" x2="140.4209" y2="109.2871">
				<stop  offset="0" style="stop-color:#FFFFFF;stop-opacity:0"/>
				<stop  offset="1" style="stop-color:#65ACDC"/>
			</linearGradient>
			<polygon style="fill:url(#SVGID_00000182516251430240853620000010016750575479938470_);" points="132.5,121.9 142.8,92.6 
				135.4,92.6 125.1,121.9 			"/>
			<path class="st22" d="M121.3,92.4L110.5,122h28.9l10.8-29.6H121.3z M142.5,92.8l-2.4,6.6h-6.5l2.4-6.6H142.5z M129.8,107.6
				l-2.4,6.6h-6.5l2.4-6.6H129.8z M123.6,106.8l2.4-6.6h6.5l-2.4,6.6H123.6z M130.6,107.6h6.5l-2.4,6.6h-6.5L130.6,107.6z
				 M130.9,106.8l2.4-6.6h6.5l-2.4,6.6H130.9z M135.3,92.8l-2.4,6.6h-6.5l2.4-6.6H135.3z M121.6,92.8h6.5l-2.4,6.6h-6.5L121.6,92.8z
				 M118.9,100.2h6.5l-2.4,6.6h-6.5L118.9,100.2z M116.1,107.6h6.5l-2.4,6.6h-6.5L116.1,107.6z M111,121.6l2.4-6.6h6.5l-2.4,6.6H111
				z M118.2,121.6l2.4-6.6h6.5l-2.4,6.6H118.2z M125.4,121.6l2.4-6.6h6.5l-2.4,6.6H125.4z M139.1,121.6h-6.5l2.4-6.6h6.5
				L139.1,121.6z M141.8,114.2h-6.5l2.4-6.6h6.5L141.8,114.2z M144.6,106.8h-6.5l2.4-6.6h6.5L144.6,106.8z M140.8,99.4l2.4-6.6h6.5
				l-2.4,6.6H140.8z"/>
		</g>
		<g>
			<polygon class="st28" points="182.2,93.3 181.3,92.4 153.3,93.3 141.6,122 142.5,122.9 171.4,122.9 			"/>
			<polygon class="st22" points="181.3,92.4 152.4,92.4 141.6,122 170.4,122 			"/>
			<g>
				<polygon class="st29" points="159.1,92.8 152.6,92.8 150.2,99.4 156.7,99.4 				"/>
				<polygon class="st29" points="163.9,99.4 166.3,92.8 159.8,92.8 157.4,99.4 				"/>
				<polygon class="st29" points="171.1,99.4 173.5,92.8 167.1,92.8 164.6,99.4 				"/>
				<polygon class="st29" points="174.3,92.8 171.9,99.4 178.3,99.4 180.8,92.8 				"/>
				<polygon class="st29" points="156.4,100.2 149.9,100.2 147.5,106.8 154,106.8 				"/>
				<polygon class="st29" points="163.6,100.2 157.1,100.2 154.7,106.8 161.2,106.8 				"/>
				<polygon class="st29" points="170.8,100.2 164.4,100.2 161.9,106.8 168.4,106.8 				"/>
				<polygon class="st29" points="169.1,106.8 175.6,106.8 178,100.2 171.6,100.2 				"/>
				<polygon class="st29" points="153.7,107.6 147.2,107.6 144.8,114.2 151.2,114.2 				"/>
				<polygon class="st29" points="152,114.2 158.5,114.2 160.9,107.6 154.4,107.6 				"/>
				<polygon class="st29" points="168.1,107.6 161.6,107.6 159.2,114.2 165.7,114.2 				"/>
				<polygon class="st29" points="166.4,114.2 172.9,114.2 175.3,107.6 168.9,107.6 				"/>
				<polygon class="st29" points="144.5,115 142.1,121.6 148.5,121.6 151,115 				"/>
				<polygon class="st29" points="151.7,115 149.3,121.6 155.8,121.6 158.2,115 				"/>
				<polygon class="st29" points="158.9,115 156.5,121.6 163,121.6 165.4,115 				"/>
				<polygon class="st29" points="163.7,121.6 170.2,121.6 172.6,115 166.1,115 				"/>
			</g>
			<g>
				
					<linearGradient id="SVGID_00000115487158282143336610000001610700242288449937_" gradientUnits="userSpaceOnUse" x1="148.1105" y1="106.3781" x2="157.1385" y2="109.2671">
					<stop  offset="0" style="stop-color:#FFFFFF;stop-opacity:0"/>
					<stop  offset="1" style="stop-color:#65ACDC"/>
				</linearGradient>
				<polygon style="fill:url(#SVGID_00000115487158282143336610000001610700242288449937_);" points="149.2,121.8 159.5,92.6 
					152.5,92.6 141.8,121.8 				"/>
				
					<linearGradient id="SVGID_00000057860782072718879860000015464697710487148443_" gradientUnits="userSpaceOnUse" x1="155.0088" y1="106.3102" x2="164.5945" y2="109.3776">
					<stop  offset="0" style="stop-color:#FFFFFF;stop-opacity:0"/>
					<stop  offset="1" style="stop-color:#65ACDC"/>
				</linearGradient>
				<polygon style="fill:url(#SVGID_00000057860782072718879860000015464697710487148443_);" points="156.1,121.8 166.9,92.5 
					159.5,92.4 148.6,121.8 				"/>
				
					<linearGradient id="SVGID_00000134962355636833967560000010136274151980251066_" gradientUnits="userSpaceOnUse" x1="169.6408" y1="106.3324" x2="178.737" y2="109.2432">
					<stop  offset="0" style="stop-color:#FFFFFF;stop-opacity:0"/>
					<stop  offset="1" style="stop-color:#65ACDC"/>
				</linearGradient>
				<polygon style="fill:url(#SVGID_00000134962355636833967560000010136274151980251066_);" points="170.4,121.8 181.1,92.5 
					174,92.6 163.3,121.8 				"/>
			</g>
			
				<linearGradient id="SVGID_00000093176885839049254010000002943707587485204390_" gradientUnits="userSpaceOnUse" x1="162.4257" y1="106.3909" x2="171.4761" y2="109.2871">
				<stop  offset="0" style="stop-color:#FFFFFF;stop-opacity:0"/>
				<stop  offset="1" style="stop-color:#65ACDC"/>
			</linearGradient>
			<polygon style="fill:url(#SVGID_00000093176885839049254010000002943707587485204390_);" points="163.5,121.9 173.9,92.6 
				166.5,92.6 156.1,121.9 			"/>
			<path class="st22" d="M152.4,92.4L141.6,122h28.9l10.8-29.6H152.4z M173.5,92.8l-2.4,6.6h-6.5l2.4-6.6H173.5z M160.9,107.6
				l-2.4,6.6H152l2.4-6.6H160.9z M154.7,106.8l2.4-6.6h6.5l-2.4,6.6H154.7z M161.6,107.6h6.5l-2.4,6.6h-6.5L161.6,107.6z
				 M161.9,106.8l2.4-6.6h6.5l-2.4,6.6H161.9z M166.3,92.8l-2.4,6.6h-6.5l2.4-6.6H166.3z M152.6,92.8h6.5l-2.4,6.6h-6.5L152.6,92.8z
				 M149.9,100.2h6.5l-2.4,6.6h-6.5L149.9,100.2z M147.2,107.6h6.5l-2.4,6.6h-6.5L147.2,107.6z M142.1,121.6l2.4-6.6h6.5l-2.4,6.6
				H142.1z M149.3,121.6l2.4-6.6h6.5l-2.4,6.6H149.3z M156.5,121.6l2.4-6.6h6.5l-2.4,6.6H156.5z M170.2,121.6h-6.5l2.4-6.6h6.5
				L170.2,121.6z M172.9,114.2h-6.5l2.4-6.6h6.5L172.9,114.2z M175.6,106.8h-6.5l2.4-6.6h6.5L175.6,106.8z M171.9,99.4l2.4-6.6h6.5
				l-2.4,6.6H171.9z"/>
		</g>
		<g>
			<polygon class="st28" points="213.2,93.3 212.3,92.4 184.4,93.3 172.6,122 173.5,122.9 202.4,122.9 			"/>
			<polygon class="st22" points="212.3,92.4 183.4,92.4 172.6,122 201.5,122 			"/>
			<g>
				<polygon class="st29" points="190.2,92.8 183.7,92.8 181.3,99.4 187.7,99.4 				"/>
				<polygon class="st29" points="194.9,99.4 197.4,92.8 190.9,92.8 188.5,99.4 				"/>
				<polygon class="st29" points="202.2,99.4 204.6,92.8 198.1,92.8 195.7,99.4 				"/>
				<polygon class="st29" points="205.3,92.8 202.9,99.4 209.4,99.4 211.8,92.8 				"/>
				<polygon class="st29" points="187.4,100.2 181,100.2 178.5,106.8 185,106.8 				"/>
				<polygon class="st29" points="194.7,100.2 188.2,100.2 185.8,106.8 192.2,106.8 				"/>
				<polygon class="st29" points="201.9,100.2 195.4,100.2 193,106.8 199.5,106.8 				"/>
				<polygon class="st29" points="200.2,106.8 206.7,106.8 209.1,100.2 202.6,100.2 				"/>
				<polygon class="st29" points="184.7,107.6 178.3,107.6 175.8,114.2 182.3,114.2 				"/>
				<polygon class="st29" points="183.1,114.2 189.5,114.2 191.9,107.6 185.5,107.6 				"/>
				<polygon class="st29" points="199.2,107.6 192.7,107.6 190.3,114.2 196.7,114.2 				"/>
				<polygon class="st29" points="197.5,114.2 204,114.2 206.4,107.6 199.9,107.6 				"/>
				<polygon class="st29" points="175.5,115 173.1,121.6 179.6,121.6 182,115 				"/>
				<polygon class="st29" points="182.8,115 180.3,121.6 186.8,121.6 189.2,115 				"/>
				<polygon class="st29" points="190,115 187.6,121.6 194,121.6 196.5,115 				"/>
				<polygon class="st29" points="194.8,121.6 201.2,121.6 203.7,115 197.2,115 				"/>
			</g>
			<g>
				
					<linearGradient id="SVGID_00000110462630690398664960000008106993739433464719_" gradientUnits="userSpaceOnUse" x1="179.1656" y1="106.3781" x2="188.1937" y2="109.2671">
					<stop  offset="0" style="stop-color:#FFFFFF;stop-opacity:0"/>
					<stop  offset="1" style="stop-color:#65ACDC"/>
				</linearGradient>
				<polygon style="fill:url(#SVGID_00000110462630690398664960000008106993739433464719_);" points="180.3,121.8 190.6,92.6 
					183.5,92.6 172.9,121.8 				"/>
				
					<linearGradient id="SVGID_00000000944639447627358670000004947178687927397000_" gradientUnits="userSpaceOnUse" x1="186.064" y1="106.3102" x2="195.6497" y2="109.3776">
					<stop  offset="0" style="stop-color:#FFFFFF;stop-opacity:0"/>
					<stop  offset="1" style="stop-color:#65ACDC"/>
				</linearGradient>
				<polygon style="fill:url(#SVGID_00000000944639447627358670000004947178687927397000_);" points="187.1,121.8 197.9,92.5 
					190.5,92.4 179.7,121.8 				"/>
				
					<linearGradient id="SVGID_00000146488245212179482850000009939071715038880957_" gradientUnits="userSpaceOnUse" x1="200.696" y1="106.3324" x2="209.7921" y2="109.2432">
					<stop  offset="0" style="stop-color:#FFFFFF;stop-opacity:0"/>
					<stop  offset="1" style="stop-color:#65ACDC"/>
				</linearGradient>
				<polygon style="fill:url(#SVGID_00000146488245212179482850000009939071715038880957_);" points="201.4,121.8 212.2,92.5 
					205.1,92.6 194.4,121.8 				"/>
			</g>
			
				<linearGradient id="SVGID_00000162328007418686028460000012584943317827585944_" gradientUnits="userSpaceOnUse" x1="193.4809" y1="106.3909" x2="202.5312" y2="109.2871">
				<stop  offset="0" style="stop-color:#FFFFFF;stop-opacity:0"/>
				<stop  offset="1" style="stop-color:#65ACDC"/>
			</linearGradient>
			<polygon style="fill:url(#SVGID_00000162328007418686028460000012584943317827585944_);" points="194.6,121.9 204.9,92.6 
				197.5,92.6 187.2,121.9 			"/>
			<path class="st22" d="M183.4,92.4L172.6,122h28.9l10.8-29.6H183.4z M204.6,92.8l-2.4,6.6h-6.5l2.4-6.6H204.6z M191.9,107.6
				l-2.4,6.6h-6.5l2.4-6.6H191.9z M185.8,106.8l2.4-6.6h6.5l-2.4,6.6H185.8z M192.7,107.6h6.5l-2.4,6.6h-6.5L192.7,107.6z
				 M193,106.8l2.4-6.6h6.5l-2.4,6.6H193z M197.4,92.8l-2.4,6.6h-6.5l2.4-6.6H197.4z M183.7,92.8h6.5l-2.4,6.6h-6.5L183.7,92.8z
				 M181,100.2h6.5l-2.4,6.6h-6.5L181,100.2z M178.3,107.6h6.5l-2.4,6.6h-6.5L178.3,107.6z M173.1,121.6l2.4-6.6h6.5l-2.4,6.6H173.1
				z M180.3,121.6l2.4-6.6h6.5l-2.4,6.6H180.3z M187.6,121.6l2.4-6.6h6.5l-2.4,6.6H187.6z M201.2,121.6h-6.5l2.4-6.6h6.5
				L201.2,121.6z M204,114.2h-6.5l2.4-6.6h6.5L204,114.2z M206.7,106.8h-6.5l2.4-6.6h6.5L206.7,106.8z M202.9,99.4l2.4-6.6h6.5
				l-2.4,6.6H202.9z"/>
		</g>
		<g>
			<polygon class="st28" points="163.4,59.9 162.5,59 134.5,59.9 122.8,88.5 123.7,89.5 152.5,89.5 			"/>
			<polygon class="st22" points="162.5,59 133.6,59 122.8,88.5 151.6,88.5 			"/>
			<g>
				<polygon class="st29" points="140.3,59.3 133.8,59.3 131.4,66 137.9,66 				"/>
				<polygon class="st29" points="145.1,66 147.5,59.3 141,59.3 138.6,66 				"/>
				<polygon class="st29" points="152.3,66 154.7,59.3 148.2,59.3 145.8,66 				"/>
				<polygon class="st29" points="155.5,59.3 153,66 159.5,66 161.9,59.3 				"/>
				<polygon class="st29" points="137.6,66.7 131.1,66.7 128.7,73.4 135.1,73.4 				"/>
				<polygon class="st29" points="144.8,66.7 138.3,66.7 135.9,73.4 142.4,73.4 				"/>
				<polygon class="st29" points="152,66.7 145.5,66.7 143.1,73.4 149.6,73.4 				"/>
				<polygon class="st29" points="150.3,73.4 156.8,73.4 159.2,66.7 152.8,66.7 				"/>
				<polygon class="st29" points="134.9,74.1 128.4,74.1 126,80.8 132.4,80.8 				"/>
				<polygon class="st29" points="133.2,80.8 139.7,80.8 142.1,74.1 135.6,74.1 				"/>
				<polygon class="st29" points="149.3,74.1 142.8,74.1 140.4,80.8 146.9,80.8 				"/>
				<polygon class="st29" points="147.6,80.8 154.1,80.8 156.5,74.1 150,74.1 				"/>
				<polygon class="st29" points="125.7,81.5 123.3,88.2 129.7,88.2 132.2,81.5 				"/>
				<polygon class="st29" points="132.9,81.5 130.5,88.2 136.9,88.2 139.4,81.5 				"/>
				<polygon class="st29" points="140.1,81.5 137.7,88.2 144.2,88.2 146.6,81.5 				"/>
				<polygon class="st29" points="144.9,88.2 151.4,88.2 153.8,81.5 147.3,81.5 				"/>
			</g>
			<g>
				
					<linearGradient id="SVGID_00000005984987254922667360000000219807665147857070_" gradientUnits="userSpaceOnUse" x1="129.2979" y1="72.9251" x2="138.3259" y2="75.8141">
					<stop  offset="0" style="stop-color:#FFFFFF;stop-opacity:0"/>
					<stop  offset="1" style="stop-color:#65ACDC"/>
				</linearGradient>
				<polygon style="fill:url(#SVGID_00000005984987254922667360000000219807665147857070_);" points="130.4,88.4 140.7,59.1 
					133.6,59.1 123,88.4 				"/>
				
					<linearGradient id="SVGID_00000111881624057666534230000007184807486515907248_" gradientUnits="userSpaceOnUse" x1="136.1963" y1="72.8572" x2="145.7819" y2="75.9246">
					<stop  offset="0" style="stop-color:#FFFFFF;stop-opacity:0"/>
					<stop  offset="1" style="stop-color:#65ACDC"/>
				</linearGradient>
				<polygon style="fill:url(#SVGID_00000111881624057666534230000007184807486515907248_);" points="137.3,88.4 148.1,59.1 
					140.6,59 129.8,88.4 				"/>
				
					<linearGradient id="SVGID_00000150807823085927127910000017827350709833008028_" gradientUnits="userSpaceOnUse" x1="150.8283" y1="72.8795" x2="159.9244" y2="75.7902">
					<stop  offset="0" style="stop-color:#FFFFFF;stop-opacity:0"/>
					<stop  offset="1" style="stop-color:#65ACDC"/>
				</linearGradient>
				<polygon style="fill:url(#SVGID_00000150807823085927127910000017827350709833008028_);" points="151.6,88.4 162.3,59 
					155.2,59.1 144.5,88.4 				"/>
			</g>
			
				<linearGradient id="SVGID_00000005230600860668452550000007830378611161828015_" gradientUnits="userSpaceOnUse" x1="143.6131" y1="72.938" x2="152.6635" y2="75.8341">
				<stop  offset="0" style="stop-color:#FFFFFF;stop-opacity:0"/>
				<stop  offset="1" style="stop-color:#65ACDC"/>
			</linearGradient>
			<polygon style="fill:url(#SVGID_00000005230600860668452550000007830378611161828015_);" points="144.7,88.4 155.1,59.1 
				147.7,59.1 137.3,88.4 			"/>
			<path class="st22" d="M133.6,59l-10.8,29.6h28.9L162.5,59H133.6z M154.7,59.3l-2.4,6.6h-6.5l2.4-6.6H154.7z M142.1,74.1l-2.4,6.6
				h-6.5l2.4-6.6H142.1z M135.9,73.4l2.4-6.6h6.5l-2.4,6.6H135.9z M142.8,74.1h6.5l-2.4,6.6h-6.5L142.8,74.1z M143.1,73.4l2.4-6.6
				h6.5l-2.4,6.6H143.1z M147.5,59.3l-2.4,6.6h-6.5l2.4-6.6H147.5z M133.8,59.3h6.5l-2.4,6.6h-6.5L133.8,59.3z M131.1,66.7h6.5
				l-2.4,6.6h-6.5L131.1,66.7z M128.4,74.1h6.5l-2.4,6.6H126L128.4,74.1z M123.3,88.2l2.4-6.6h6.5l-2.4,6.6H123.3z M130.5,88.2
				l2.4-6.6h6.5l-2.4,6.6H130.5z M137.7,88.2l2.4-6.6h6.5l-2.4,6.6H137.7z M151.4,88.2h-6.5l2.4-6.6h6.5L151.4,88.2z M154.1,80.8
				h-6.5l2.4-6.6h6.5L154.1,80.8z M156.8,73.4h-6.5l2.4-6.6h6.5L156.8,73.4z M153,66l2.4-6.6h6.5l-2.4,6.6H153z"/>
		</g>
		<g>
			<polygon class="st28" points="194.4,59.9 193.5,59 165.6,59.9 153.8,88.5 154.7,89.5 183.6,89.5 			"/>
			<polygon class="st22" points="193.5,59 164.6,59 153.8,88.5 182.7,88.5 			"/>
			<g>
				<polygon class="st29" points="171.3,59.3 164.9,59.3 162.4,66 168.9,66 				"/>
				<polygon class="st29" points="176.1,66 178.6,59.3 172.1,59.3 169.7,66 				"/>
				<polygon class="st29" points="183.3,66 185.8,59.3 179.3,59.3 176.9,66 				"/>
				<polygon class="st29" points="186.5,59.3 184.1,66 190.6,66 193,59.3 				"/>
				<polygon class="st29" points="168.6,66.7 162.2,66.7 159.7,73.4 166.2,73.4 				"/>
				<polygon class="st29" points="175.8,66.7 169.4,66.7 166.9,73.4 173.4,73.4 				"/>
				<polygon class="st29" points="183.1,66.7 176.6,66.7 174.2,73.4 180.6,73.4 				"/>
				<polygon class="st29" points="181.4,73.4 187.9,73.4 190.3,66.7 183.8,66.7 				"/>
				<polygon class="st29" points="165.9,74.1 159.4,74.1 157,80.8 163.5,80.8 				"/>
				<polygon class="st29" points="164.2,80.8 170.7,80.8 173.1,74.1 166.7,74.1 				"/>
				<polygon class="st29" points="180.4,74.1 173.9,74.1 171.5,80.8 177.9,80.8 				"/>
				<polygon class="st29" points="178.7,80.8 185.1,80.8 187.6,74.1 181.1,74.1 				"/>
				<polygon class="st29" points="156.7,81.5 154.3,88.2 160.8,88.2 163.2,81.5 				"/>
				<polygon class="st29" points="164,81.5 161.5,88.2 168,88.2 170.4,81.5 				"/>
				<polygon class="st29" points="171.2,81.5 168.7,88.2 175.2,88.2 177.6,81.5 				"/>
				<polygon class="st29" points="176,88.2 182.4,88.2 184.9,81.5 178.4,81.5 				"/>
			</g>
			<g>
				
					<linearGradient id="SVGID_00000007420901856789008310000010718304777344476556_" gradientUnits="userSpaceOnUse" x1="160.3531" y1="72.9251" x2="169.3811" y2="75.8141">
					<stop  offset="0" style="stop-color:#FFFFFF;stop-opacity:0"/>
					<stop  offset="1" style="stop-color:#65ACDC"/>
				</linearGradient>
				<polygon style="fill:url(#SVGID_00000007420901856789008310000010718304777344476556_);" points="161.5,88.4 171.8,59.1 
					164.7,59.1 154.1,88.4 				"/>
				
					<linearGradient id="SVGID_00000031920387549246393430000007883500841030077314_" gradientUnits="userSpaceOnUse" x1="167.2514" y1="72.8572" x2="176.8371" y2="75.9246">
					<stop  offset="0" style="stop-color:#FFFFFF;stop-opacity:0"/>
					<stop  offset="1" style="stop-color:#65ACDC"/>
				</linearGradient>
				<polygon style="fill:url(#SVGID_00000031920387549246393430000007883500841030077314_);" points="168.3,88.4 179.1,59.1 
					171.7,59 160.9,88.4 				"/>
				
					<linearGradient id="SVGID_00000000182425191949613300000007715765616282335880_" gradientUnits="userSpaceOnUse" x1="181.8834" y1="72.8795" x2="190.9796" y2="75.7902">
					<stop  offset="0" style="stop-color:#FFFFFF;stop-opacity:0"/>
					<stop  offset="1" style="stop-color:#65ACDC"/>
				</linearGradient>
				<polygon style="fill:url(#SVGID_00000000182425191949613300000007715765616282335880_);" points="182.6,88.4 193.4,59 
					186.3,59.1 175.6,88.4 				"/>
			</g>
			
				<linearGradient id="SVGID_00000085968971291274885770000008344628107892562094_" gradientUnits="userSpaceOnUse" x1="174.6683" y1="72.938" x2="183.7186" y2="75.8341">
				<stop  offset="0" style="stop-color:#FFFFFF;stop-opacity:0"/>
				<stop  offset="1" style="stop-color:#65ACDC"/>
			</linearGradient>
			<polygon style="fill:url(#SVGID_00000085968971291274885770000008344628107892562094_);" points="175.8,88.4 186.1,59.1 
				178.7,59.1 168.4,88.4 			"/>
			<path class="st22" d="M164.6,59l-10.8,29.6h28.9L193.5,59H164.6z M185.8,59.3l-2.4,6.6h-6.5l2.4-6.6H185.8z M173.1,74.1l-2.4,6.6
				h-6.5l2.4-6.6H173.1z M166.9,73.4l2.4-6.6h6.5l-2.4,6.6H166.9z M173.9,74.1h6.5l-2.4,6.6h-6.5L173.9,74.1z M174.2,73.4l2.4-6.6
				h6.5l-2.4,6.6H174.2z M178.6,59.3l-2.4,6.6h-6.5l2.4-6.6H178.6z M164.9,59.3h6.5l-2.4,6.6h-6.5L164.9,59.3z M162.2,66.7h6.5
				l-2.4,6.6h-6.5L162.2,66.7z M159.4,74.1h6.5l-2.4,6.6H157L159.4,74.1z M154.3,88.2l2.4-6.6h6.5l-2.4,6.6H154.3z M161.5,88.2
				l2.4-6.6h6.5l-2.4,6.6H161.5z M168.7,88.2l2.4-6.6h6.5l-2.4,6.6H168.7z M182.4,88.2H176l2.4-6.6h6.5L182.4,88.2z M185.1,80.8
				h-6.5l2.4-6.6h6.5L185.1,80.8z M187.9,73.4h-6.5l2.4-6.6h6.5L187.9,73.4z M184.1,66l2.4-6.6h6.5l-2.4,6.6H184.1z"/>
		</g>
		<g>
			<polygon class="st28" points="225.5,59.9 224.6,59 196.6,59.9 184.9,88.5 185.8,89.5 214.7,89.5 			"/>
			<polygon class="st22" points="224.6,59 195.7,59 184.9,88.5 213.7,88.5 			"/>
			<g>
				<polygon class="st29" points="202.4,59.3 195.9,59.3 193.5,66 200,66 				"/>
				<polygon class="st29" points="207.2,66 209.6,59.3 203.1,59.3 200.7,66 				"/>
				<polygon class="st29" points="214.4,66 216.8,59.3 210.4,59.3 207.9,66 				"/>
				<polygon class="st29" points="217.6,59.3 215.1,66 221.6,66 224,59.3 				"/>
				<polygon class="st29" points="199.7,66.7 193.2,66.7 190.8,73.4 197.3,73.4 				"/>
				<polygon class="st29" points="206.9,66.7 200.4,66.7 198,73.4 204.5,73.4 				"/>
				<polygon class="st29" points="214.1,66.7 207.6,66.7 205.2,73.4 211.7,73.4 				"/>
				<polygon class="st29" points="212.4,73.4 218.9,73.4 221.3,66.7 214.9,66.7 				"/>
				<polygon class="st29" points="197,74.1 190.5,74.1 188.1,80.8 194.5,80.8 				"/>
				<polygon class="st29" points="195.3,80.8 201.8,80.8 204.2,74.1 197.7,74.1 				"/>
				<polygon class="st29" points="211.4,74.1 204.9,74.1 202.5,80.8 209,80.8 				"/>
				<polygon class="st29" points="209.7,80.8 216.2,80.8 218.6,74.1 212.2,74.1 				"/>
				<polygon class="st29" points="187.8,81.5 185.4,88.2 191.8,88.2 194.3,81.5 				"/>
				<polygon class="st29" points="195,81.5 192.6,88.2 199.1,88.2 201.5,81.5 				"/>
				<polygon class="st29" points="202.2,81.5 199.8,88.2 206.3,88.2 208.7,81.5 				"/>
				<polygon class="st29" points="207,88.2 213.5,88.2 215.9,81.5 209.4,81.5 				"/>
			</g>
			<g>
				
					<linearGradient id="SVGID_00000033344195302955631600000005393527523712225454_" gradientUnits="userSpaceOnUse" x1="191.4082" y1="72.9251" x2="200.4363" y2="75.8141">
					<stop  offset="0" style="stop-color:#FFFFFF;stop-opacity:0"/>
					<stop  offset="1" style="stop-color:#65ACDC"/>
				</linearGradient>
				<polygon style="fill:url(#SVGID_00000033344195302955631600000005393527523712225454_);" points="192.5,88.4 202.8,59.1 
					195.8,59.1 185.1,88.4 				"/>
				
					<linearGradient id="SVGID_00000080171978006362451740000015565962006316478872_" gradientUnits="userSpaceOnUse" x1="198.3066" y1="72.8572" x2="207.8923" y2="75.9246">
					<stop  offset="0" style="stop-color:#FFFFFF;stop-opacity:0"/>
					<stop  offset="1" style="stop-color:#65ACDC"/>
				</linearGradient>
				<polygon style="fill:url(#SVGID_00000080171978006362451740000015565962006316478872_);" points="199.4,88.4 210.2,59.1 
					202.8,59 191.9,88.4 				"/>
				
					<linearGradient id="SVGID_00000138567956558969127580000003240022350320184716_" gradientUnits="userSpaceOnUse" x1="212.9386" y1="72.8795" x2="222.0347" y2="75.7902">
					<stop  offset="0" style="stop-color:#FFFFFF;stop-opacity:0"/>
					<stop  offset="1" style="stop-color:#65ACDC"/>
				</linearGradient>
				<polygon style="fill:url(#SVGID_00000138567956558969127580000003240022350320184716_);" points="213.7,88.4 224.4,59 
					217.3,59.1 206.6,88.4 				"/>
			</g>
			
				<linearGradient id="SVGID_00000124144182793750598110000008257388739523792308_" gradientUnits="userSpaceOnUse" x1="205.7235" y1="72.938" x2="214.7738" y2="75.8341">
				<stop  offset="0" style="stop-color:#FFFFFF;stop-opacity:0"/>
				<stop  offset="1" style="stop-color:#65ACDC"/>
			</linearGradient>
			<polygon style="fill:url(#SVGID_00000124144182793750598110000008257388739523792308_);" points="206.8,88.4 217.2,59.1 
				209.8,59.1 199.4,88.4 			"/>
			<path class="st22" d="M195.7,59l-10.8,29.6h28.9L224.6,59H195.7z M216.8,59.3l-2.4,6.6h-6.5l2.4-6.6H216.8z M204.2,74.1l-2.4,6.6
				h-6.5l2.4-6.6H204.2z M198,73.4l2.4-6.6h6.5l-2.4,6.6H198z M204.9,74.1h6.5l-2.4,6.6h-6.5L204.9,74.1z M205.2,73.4l2.4-6.6h6.5
				l-2.4,6.6H205.2z M209.6,59.3l-2.4,6.6h-6.5l2.4-6.6H209.6z M195.9,59.3h6.5L200,66h-6.5L195.9,59.3z M193.2,66.7h6.5l-2.4,6.6
				h-6.5L193.2,66.7z M190.5,74.1h6.5l-2.4,6.6h-6.5L190.5,74.1z M185.4,88.2l2.4-6.6h6.5l-2.4,6.6H185.4z M192.6,88.2l2.4-6.6h6.5
				l-2.4,6.6H192.6z M199.8,88.2l2.4-6.6h6.5l-2.4,6.6H199.8z M213.5,88.2H207l2.4-6.6h6.5L213.5,88.2z M216.2,80.8h-6.5l2.4-6.6
				h6.5L216.2,80.8z M218.9,73.4h-6.5l2.4-6.6h6.5L218.9,73.4z M215.1,66l2.4-6.6h6.5l-2.4,6.6H215.1z"/>
		</g>
		<polygon class="st6" points="380.3,69.9 245.6,69.9 258.5,27.6 367,27.6 		"/>
		<g>
			<defs>
				<polygon id="SVGID_00000064335086750793368250000017851439565236295567_" points="380.3,69.9 245.6,69.9 258.5,27.6 367,27.6 
									"/>
			</defs>
			<clipPath id="SVGID_00000088131668907091500730000015086443002895917242_">
				<use xlink:href="#SVGID_00000064335086750793368250000017851439565236295567_"  style="overflow:visible;"/>
			</clipPath>
			
				<line style="clip-path:url(#SVGID_00000088131668907091500730000015086443002895917242_);fill:none;stroke:#344C4E;stroke-miterlimit:10;" x1="236.8" y1="31.2" x2="383" y2="31.2"/>
			
				<line style="clip-path:url(#SVGID_00000088131668907091500730000015086443002895917242_);fill:none;stroke:#344C4E;stroke-miterlimit:10;" x1="236.9" y1="37.6" x2="383.1" y2="37.6"/>
			
				<line style="clip-path:url(#SVGID_00000088131668907091500730000015086443002895917242_);fill:none;stroke:#344C4E;stroke-miterlimit:10;" x1="236.9" y1="43.9" x2="383.1" y2="43.9"/>
			
				<line style="clip-path:url(#SVGID_00000088131668907091500730000015086443002895917242_);fill:none;stroke:#344C4E;stroke-miterlimit:10;" x1="236.9" y1="50.3" x2="383.1" y2="50.3"/>
			
				<line style="clip-path:url(#SVGID_00000088131668907091500730000015086443002895917242_);fill:none;stroke:#344C4E;stroke-miterlimit:10;" x1="236.9" y1="56.6" x2="383.1" y2="56.6"/>
			
				<line style="clip-path:url(#SVGID_00000088131668907091500730000015086443002895917242_);fill:none;stroke:#344C4E;stroke-miterlimit:10;" x1="236.9" y1="63" x2="383.1" y2="63"/>
		</g>
		<polygon class="st9" points="374.9,69.7 312.7,6.6 250.6,69.7 250.6,107.6 374.9,107.6 		"/>
		<g>
			<defs>
				<polygon id="SVGID_00000124142194066333263490000009978429166662033068_" points="374.9,69.7 312.7,6.6 250.6,69.7 250.6,107.6 
					374.9,107.6 				"/>
			</defs>
			<clipPath id="SVGID_00000001623890898157489670000000876033205739740301_">
				<use xlink:href="#SVGID_00000124142194066333263490000009978429166662033068_"  style="overflow:visible;"/>
			</clipPath>
			
				<rect x="341" y="-6.9" transform="matrix(0.7071 -0.7071 0.7071 0.7071 72.1947 255.0261)" style="clip-path:url(#SVGID_00000001623890898157489670000000876033205739740301_);fill:#B5DAE4;" width="5.9" height="94.5"/>
		</g>
		<g>
			<defs>
				<path id="SVGID_00000161589701793152178570000009863235238257269167_" d="M55,205.6v-1.7c-0.7,0-1.2,1.2-1.2,0.5v-98.1
					c0-0.7,0.5-1.2,1.2-1.2l0,0c0.7,0,1.2,0.5,1.2,1.2v96.4C56.2,203.4,55.6,205.6,55,205.6z"/>
			</defs>
			<clipPath id="SVGID_00000026865525449704147820000012107238477851162768_">
				<use xlink:href="#SVGID_00000161589701793152178570000009863235238257269167_"  style="overflow:visible;"/>
			</clipPath>
			<path style="clip-path:url(#SVGID_00000026865525449704147820000012107238477851162768_);fill:#4F4E4D;" d="M55.8,203.9h-2.4
				v-97.5c0-0.7,0.5-1.2,1.2-1.2l0,0c0.7,0,1.2,0.5,1.2,1.2V203.9z"/>
		</g>
		<rect x="35.2" y="118.5" class="st57" width="39.5" height="4.2"/>
		<path class="st57" d="M45.1,120.9L45.1,120.9c-0.7,0-1.3-0.6-1.3-1.3v-5.5c0-0.7,0.6-1.3,1.3-1.3h0c0.7,0,1.3,0.6,1.3,1.3v5.5
			C46.4,120.3,45.9,120.9,45.1,120.9z"/>
		<path class="st57" d="M37.1,120.9L37.1,120.9c-0.7,0-1.3-0.6-1.3-1.3v-5.5c0-0.7,0.6-1.3,1.3-1.3h0c0.7,0,1.3,0.6,1.3,1.3v5.5
			C38.4,120.3,37.8,120.9,37.1,120.9z"/>
		<path class="st57" d="M66.6,120.9L66.6,120.9c-0.7,0-1.3-0.6-1.3-1.3v-5.5c0-0.7,0.6-1.3,1.3-1.3l0,0c0.7,0,1.3,0.6,1.3,1.3v5.5
			C67.9,120.3,67.3,120.9,66.6,120.9z"/>
		<rect x="35.6" y="132.9" class="st57" width="38.8" height="3.8"/>
		<path class="st57" d="M47.5,136.5L47.5,136.5c-0.7,0-1.3-0.6-1.3-1.3v-5.5c0-0.7,0.6-1.3,1.3-1.3h0c0.7,0,1.3,0.6,1.3,1.3v5.5
			C48.8,136,48.2,136.5,47.5,136.5z"/>
		<path class="st57" d="M41.8,136.5L41.8,136.5c-0.7,0-1.3-0.6-1.3-1.3v-5.5c0-0.7,0.6-1.3,1.3-1.3l0,0c0.7,0,1.3,0.6,1.3,1.3v5.5
			C43.1,136,42.5,136.5,41.8,136.5z"/>
		<path class="st57" d="M62.2,136.5L62.2,136.5c-0.7,0-1.3-0.6-1.3-1.3v-5.5c0-0.7,0.6-1.3,1.3-1.3h0c0.7,0,1.3,0.6,1.3,1.3v5.5
			C63.5,136,62.9,136.5,62.2,136.5z"/>
		<path class="st58" d="M79.6,203.2H30c-0.8,0-1.4,0.6-1.4,1.4l0,0h52.5l0,0C81.1,203.8,80.4,203.2,79.6,203.2z"/>
		<line class="st59" x1="253.3" y1="64.3" x2="370.4" y2="64.3"/>
		<g>
			<g>
				<rect x="280.4" y="58.4" class="st16" width="64.7" height="42.1"/>
			</g>
			<g>
				<path class="st17" d="M312.7,42.2c-9.3,0-16.8,7.5-16.8,16.8h33.5C329.5,49.7,322,42.2,312.7,42.2z"/>
			</g>
			<g>
				<defs>
					<path id="SVGID_00000106148625441272074620000014225647412744320129_" d="M312.7,42.2c-9.3,0-16.8,7.5-16.8,16.8h33.5
						C329.5,49.7,322,42.2,312.7,42.2z"/>
				</defs>
				<clipPath id="SVGID_00000014632760456574203250000009527748418508998836_">
					<use xlink:href="#SVGID_00000106148625441272074620000014225647412744320129_"  style="overflow:visible;"/>
				</clipPath>
				<g style="clip-path:url(#SVGID_00000014632760456574203250000009527748418508998836_);">
					<path class="st16" d="M309.7,42.2c-9.3,0-16.8,7.5-16.8,16.8h33.5C326.4,49.7,318.9,42.2,309.7,42.2z"/>
				</g>
			</g>
			<g>
				<path class="st62" d="M312.7,42.7c8.8,0,16,7,16.2,15.8h-32.5C296.8,49.7,303.9,42.7,312.7,42.7 M312.7,42.2
					c-9.3,0-16.8,7.5-16.8,16.8h33.5C329.5,49.7,322,42.2,312.7,42.2L312.7,42.2z"/>
			</g>
			<g>
				<defs>
					<rect id="SVGID_00000124872263330558791700000011427920633863460233_" x="280.4" y="58.4" width="64.7" height="42.1"/>
				</defs>
				<clipPath id="SVGID_00000131369672338435978090000014973974674897995653_">
					<use xlink:href="#SVGID_00000124872263330558791700000011427920633863460233_"  style="overflow:visible;"/>
				</clipPath>
				<g style="clip-path:url(#SVGID_00000131369672338435978090000014973974674897995653_);">
					<g>
						<rect x="341.1" y="58.4" class="st17" width="4" height="42.1"/>
					</g>
					<g>
						<polygon class="st17" points="323.1,58.4 296,58.4 292.9,58.4 292,58.4 289.8,58.4 289.8,61.8 292,61.8 292,100.5 296,100.5 
							296,61.8 323.1,61.8 323.1,78.2 298.2,78.2 298.2,81.6 323.1,81.6 323.1,100.5 327.1,100.5 327.1,58.4 325.1,58.4 						"/>
					</g>
				</g>
			</g>
			<g>
				<path class="st22" d="M334.6,58.4h-43.7v2.4h5.1V100h2.4V80.6h28.7V100h2.4V60.9h5.1V58.4z M327.1,78.2h-28.7V60.9h28.7V78.2z"
					/>
			</g>
			<g>
				<path class="st62" d="M344.6,58.9V100h-63.7V58.9H344.6 M345.1,58.4h-64.7v42.1h64.7V58.4L345.1,58.4z"/>
			</g>
		</g>
		<polygon class="st22" points="312.7,1.4 242.5,71.7 246.6,75.9 312.7,9.8 378.8,75.9 383,71.7 		"/>
		<polygon class="st6" points="384.5,71.8 312.7,0 312.7,0 241,71.8 241.7,72.5 312.7,1.4 383.8,72.5 		"/>
	</g>
</g>
</svg>
